<?xml version="1.0" encoding="UTF-8"?>
<svg xmlns="http://www.w3.org/2000/svg" xmlns:xlink="http://www.w3.org/1999/xlink" width="20px" height="20px" viewBox="0 0 20 20" version="1.1">
<g id="surface1">
<path style=" stroke:none;fill-rule:nonzero;fill:rgb(100%,85.490196%,0%);fill-opacity:1;" d="M 16.304688 19.167969 L 3.695312 19.167969 C 2.976562 19.167969 2.359375 18.636719 2.257812 17.933594 L 0.015625 2.476562 C -0.046875 2.066406 0.078125 1.648438 0.351562 1.335938 C 0.625 1.015625 1.027344 0.832031 1.449219 0.832031 L 18.550781 0.832031 C 18.972656 0.832031 19.375 1.015625 19.648438 1.335938 C 19.921875 1.648438 20.046875 2.066406 19.984375 2.476562 L 17.742188 17.933594 C 17.640625 18.636719 17.023438 19.167969 16.304688 19.167969 Z M 1.449219 2.082031 C 1.367188 2.082031 1.316406 2.128906 1.292969 2.152344 C 1.269531 2.183594 1.242188 2.230469 1.25 2.296875 L 3.496094 17.753906 C 3.507812 17.847656 3.59375 17.917969 3.695312 17.917969 L 16.308594 17.917969 C 16.40625 17.917969 16.492188 17.847656 16.503906 17.753906 L 18.75 2.296875 C 18.757812 2.230469 18.730469 2.183594 18.703125 2.152344 C 18.683594 2.128906 18.632812 2.082031 18.550781 2.082031 Z M 1.449219 2.082031 "/>
<path style=" stroke:none;fill-rule:nonzero;fill:rgb(100%,85.490196%,0%);fill-opacity:1;" d="M 11.800781 13.332031 L 8.199219 13.332031 C 7.894531 13.332031 7.632812 13.113281 7.585938 12.8125 L 6.675781 7.394531 C 6.644531 7.214844 6.695312 7.027344 6.816406 6.886719 C 6.933594 6.75 7.109375 6.667969 7.292969 6.667969 L 12.707031 6.667969 C 12.890625 6.667969 13.066406 6.746094 13.183594 6.886719 C 13.304688 7.027344 13.355469 7.214844 13.324219 7.394531 L 12.414062 12.8125 C 12.367188 13.113281 12.105469 13.332031 11.800781 13.332031 Z M 8.730469 12.082031 L 11.273438 12.082031 L 11.972656 7.917969 L 8.03125 7.917969 Z M 8.730469 12.082031 "/>
</g>
</svg>
